<mxfile host="65bd71144e">
    <diagram id="i4qwd7BM1C6YDnZz90gk" name="Page-1">
        <mxGraphModel dx="545" dy="673" grid="1" gridSize="10" guides="1" tooltips="1" connect="1" arrows="1" fold="1" page="1" pageScale="1" pageWidth="850" pageHeight="1100" math="0" shadow="0">
            <root>
                <mxCell id="0"/>
                <mxCell id="1" parent="0"/>
                <mxCell id="10" value="&lt;b&gt;Patient&lt;/b&gt;" style="rounded=0;whiteSpace=wrap;html=1;" parent="1" vertex="1">
                    <mxGeometry x="40" y="80" width="120" height="30" as="geometry"/>
                </mxCell>
                <mxCell id="11" value="id" style="rounded=0;whiteSpace=wrap;html=1;" parent="1" vertex="1">
                    <mxGeometry x="40" y="110" width="120" height="30" as="geometry"/>
                </mxCell>
                <mxCell id="12" value="operating system" style="rounded=0;whiteSpace=wrap;html=1;" parent="1" vertex="1">
                    <mxGeometry x="40" y="140" width="120" height="30" as="geometry"/>
                </mxCell>
                <mxCell id="13" value="classification" style="rounded=0;whiteSpace=wrap;html=1;" parent="1" vertex="1">
                    <mxGeometry x="40" y="170" width="120" height="30" as="geometry"/>
                </mxCell>
                <mxCell id="14" value="owner" style="rounded=0;whiteSpace=wrap;html=1;" parent="1" vertex="1">
                    <mxGeometry x="40" y="200" width="120" height="30" as="geometry"/>
                </mxCell>
                <mxCell id="15" value="Visit" style="rounded=0;whiteSpace=wrap;html=1;fontStyle=1" parent="1" vertex="1">
                    <mxGeometry x="240" y="80" width="120" height="30" as="geometry"/>
                </mxCell>
                <mxCell id="16" value="id" style="rounded=0;whiteSpace=wrap;html=1;" parent="1" vertex="1">
                    <mxGeometry x="240" y="110" width="120" height="30" as="geometry"/>
                </mxCell>
                <mxCell id="17" value="length" style="rounded=0;whiteSpace=wrap;html=1;" parent="1" vertex="1">
                    <mxGeometry x="240" y="140" width="120" height="30" as="geometry"/>
                </mxCell>
                <mxCell id="18" value="coverage level" style="rounded=0;whiteSpace=wrap;html=1;" parent="1" vertex="1">
                    <mxGeometry x="240" y="170" width="120" height="30" as="geometry"/>
                </mxCell>
                <mxCell id="19" value="active" style="rounded=0;whiteSpace=wrap;html=1;" parent="1" vertex="1">
                    <mxGeometry x="240" y="200" width="120" height="30" as="geometry"/>
                </mxCell>
                <mxCell id="21" value="&lt;b&gt;Apartment&lt;/b&gt;" style="rounded=0;whiteSpace=wrap;html=1;" parent="1" vertex="1">
                    <mxGeometry x="40" y="280" width="120" height="30" as="geometry"/>
                </mxCell>
                <mxCell id="22" value="1" style="rounded=0;whiteSpace=wrap;html=1;" parent="1" vertex="1">
                    <mxGeometry x="40" y="310" width="120" height="30" as="geometry"/>
                </mxCell>
                <mxCell id="23" value="Mac" style="rounded=0;whiteSpace=wrap;html=1;" parent="1" vertex="1">
                    <mxGeometry x="40" y="340" width="120" height="30" as="geometry"/>
                </mxCell>
                <mxCell id="24" value="laptop" style="rounded=0;whiteSpace=wrap;html=1;" parent="1" vertex="1">
                    <mxGeometry x="40" y="370" width="120" height="30" as="geometry"/>
                </mxCell>
                <mxCell id="25" value="Bob Dole" style="rounded=0;whiteSpace=wrap;html=1;" parent="1" vertex="1">
                    <mxGeometry x="40" y="400" width="120" height="30" as="geometry"/>
                </mxCell>
                <mxCell id="26" value="Renter" style="rounded=0;whiteSpace=wrap;html=1;fontStyle=1" parent="1" vertex="1">
                    <mxGeometry x="240" y="280" width="120" height="30" as="geometry"/>
                </mxCell>
                <mxCell id="27" value="1" style="rounded=0;whiteSpace=wrap;html=1;" parent="1" vertex="1">
                    <mxGeometry x="240" y="310" width="120" height="30" as="geometry"/>
                </mxCell>
                <mxCell id="28" value="3 yr" style="rounded=0;whiteSpace=wrap;html=1;" parent="1" vertex="1">
                    <mxGeometry x="240" y="340" width="120" height="30" as="geometry"/>
                </mxCell>
                <mxCell id="29" value="replacement" style="rounded=0;whiteSpace=wrap;html=1;" parent="1" vertex="1">
                    <mxGeometry x="240" y="370" width="120" height="30" as="geometry"/>
                </mxCell>
                <mxCell id="30" value="active" style="rounded=0;whiteSpace=wrap;html=1;" parent="1" vertex="1">
                    <mxGeometry x="240" y="400" width="120" height="30" as="geometry"/>
                </mxCell>
                <mxCell id="32" value="Renter" style="rounded=0;whiteSpace=wrap;html=1;fontStyle=1" parent="1" vertex="1">
                    <mxGeometry x="240" y="480" width="120" height="30" as="geometry"/>
                </mxCell>
                <mxCell id="33" value="2" style="rounded=0;whiteSpace=wrap;html=1;" parent="1" vertex="1">
                    <mxGeometry x="240" y="510" width="120" height="30" as="geometry"/>
                </mxCell>
                <mxCell id="34" value="2yr" style="rounded=0;whiteSpace=wrap;html=1;" parent="1" vertex="1">
                    <mxGeometry x="240" y="540" width="120" height="30" as="geometry"/>
                </mxCell>
                <mxCell id="35" value="component replacement" style="rounded=0;whiteSpace=wrap;html=1;" parent="1" vertex="1">
                    <mxGeometry x="240" y="570" width="120" height="30" as="geometry"/>
                </mxCell>
                <mxCell id="36" value="active" style="rounded=0;whiteSpace=wrap;html=1;" parent="1" vertex="1">
                    <mxGeometry x="240" y="600" width="120" height="30" as="geometry"/>
                </mxCell>
                <mxCell id="38" value="Renter" style="rounded=0;whiteSpace=wrap;html=1;fontStyle=1" parent="1" vertex="1">
                    <mxGeometry x="240" y="680" width="120" height="30" as="geometry"/>
                </mxCell>
                <mxCell id="39" value="3" style="rounded=0;whiteSpace=wrap;html=1;" parent="1" vertex="1">
                    <mxGeometry x="240" y="710" width="120" height="30" as="geometry"/>
                </mxCell>
                <mxCell id="40" value="2yr" style="rounded=0;whiteSpace=wrap;html=1;" parent="1" vertex="1">
                    <mxGeometry x="240" y="740" width="120" height="30" as="geometry"/>
                </mxCell>
                <mxCell id="41" value="repair" style="rounded=0;whiteSpace=wrap;html=1;" parent="1" vertex="1">
                    <mxGeometry x="240" y="770" width="120" height="30" as="geometry"/>
                </mxCell>
                <mxCell id="42" value="tinydancer@gmail.com" style="rounded=0;whiteSpace=wrap;html=1;" parent="1" vertex="1">
                    <mxGeometry x="240" y="800" width="120" height="30" as="geometry"/>
                </mxCell>
                <mxCell id="43" value="inactive" style="rounded=0;whiteSpace=wrap;html=1;" parent="1" vertex="1">
                    <mxGeometry x="240" y="830" width="120" height="30" as="geometry"/>
                </mxCell>
                <mxCell id="44" value="&lt;b&gt;Apartment&lt;/b&gt;" style="rounded=0;whiteSpace=wrap;html=1;" parent="1" vertex="1">
                    <mxGeometry x="40" y="480" width="120" height="30" as="geometry"/>
                </mxCell>
                <mxCell id="45" value="2" style="rounded=0;whiteSpace=wrap;html=1;" parent="1" vertex="1">
                    <mxGeometry x="40" y="510" width="120" height="30" as="geometry"/>
                </mxCell>
                <mxCell id="46" value="Windows" style="rounded=0;whiteSpace=wrap;html=1;" parent="1" vertex="1">
                    <mxGeometry x="40" y="540" width="120" height="30" as="geometry"/>
                </mxCell>
                <mxCell id="47" value="desktop" style="rounded=0;whiteSpace=wrap;html=1;" parent="1" vertex="1">
                    <mxGeometry x="40" y="570" width="120" height="30" as="geometry"/>
                </mxCell>
                <mxCell id="48" value="Sam Gardener" style="rounded=0;whiteSpace=wrap;html=1;" parent="1" vertex="1">
                    <mxGeometry x="40" y="600" width="120" height="30" as="geometry"/>
                </mxCell>
                <mxCell id="49" value="&lt;b&gt;Apartment&lt;/b&gt;" style="rounded=0;whiteSpace=wrap;html=1;" parent="1" vertex="1">
                    <mxGeometry x="40" y="680" width="120" height="30" as="geometry"/>
                </mxCell>
                <mxCell id="50" value="3" style="rounded=0;whiteSpace=wrap;html=1;" parent="1" vertex="1">
                    <mxGeometry x="40" y="710" width="120" height="30" as="geometry"/>
                </mxCell>
                <mxCell id="51" value="Windows" style="rounded=0;whiteSpace=wrap;html=1;" parent="1" vertex="1">
                    <mxGeometry x="40" y="740" width="120" height="30" as="geometry"/>
                </mxCell>
                <mxCell id="52" value="laptop" style="rounded=0;whiteSpace=wrap;html=1;" parent="1" vertex="1">
                    <mxGeometry x="40" y="770" width="120" height="30" as="geometry"/>
                </mxCell>
                <mxCell id="53" value="Sitra Ramon" style="rounded=0;whiteSpace=wrap;html=1;" parent="1" vertex="1">
                    <mxGeometry x="40" y="800" width="120" height="30" as="geometry"/>
                </mxCell>
                <mxCell id="60" value="" style="endArrow=ERmany;startArrow=ERone;html=1;exitX=1;exitY=0.75;exitDx=0;exitDy=0;endFill=0;startFill=0;" parent="1" source="21" edge="1">
                    <mxGeometry width="50" height="50" relative="1" as="geometry">
                        <mxPoint x="180" y="350" as="sourcePoint"/>
                        <mxPoint x="240" y="303" as="targetPoint"/>
                    </mxGeometry>
                </mxCell>
                <mxCell id="61" value="" style="endArrow=ERmany;startArrow=ERone;html=1;entryX=0;entryY=0.75;entryDx=0;entryDy=0;exitX=1;exitY=0.75;exitDx=0;exitDy=0;endFill=0;startFill=0;" parent="1" edge="1">
                    <mxGeometry width="50" height="50" relative="1" as="geometry">
                        <mxPoint x="160" y="494.5" as="sourcePoint"/>
                        <mxPoint x="240" y="494.5" as="targetPoint"/>
                    </mxGeometry>
                </mxCell>
                <mxCell id="62" value="" style="endArrow=ERmany;startArrow=ERone;html=1;entryX=0;entryY=0.75;entryDx=0;entryDy=0;exitX=1;exitY=0.75;exitDx=0;exitDy=0;endFill=0;startFill=0;" parent="1" edge="1">
                    <mxGeometry width="50" height="50" relative="1" as="geometry">
                        <mxPoint x="160" y="700" as="sourcePoint"/>
                        <mxPoint x="240" y="700" as="targetPoint"/>
                    </mxGeometry>
                </mxCell>
                <mxCell id="63" value="Medical" style="text;html=1;strokeColor=none;fillColor=none;align=center;verticalAlign=middle;whiteSpace=wrap;rounded=0;fontStyle=1;fontSize=24;" parent="1" vertex="1">
                    <mxGeometry x="70" y="20" width="60" height="30" as="geometry"/>
                </mxCell>
            </root>
        </mxGraphModel>
    </diagram>
</mxfile>
